<?xml version="1.0" encoding="utf-8" standalone="no"?>
<!DOCTYPE svg PUBLIC "-//W3C//DTD SVG 1.1//EN"
  "http://www.w3.org/Graphics/SVG/1.1/DTD/svg11.dtd">
<!-- Created with matplotlib (https://matplotlib.org/) -->
<svg height="288pt" version="1.1" viewBox="0 0 432 288" width="432pt" xmlns="http://www.w3.org/2000/svg" xmlns:xlink="http://www.w3.org/1999/xlink">
 <metadata>
  <rdf:RDF xmlns:cc="http://creativecommons.org/ns#" xmlns:dc="http://purl.org/dc/elements/1.1/" xmlns:rdf="http://www.w3.org/1999/02/22-rdf-syntax-ns#">
   <cc:Work>
    <dc:type rdf:resource="http://purl.org/dc/dcmitype/StillImage"/>
    <dc:date>2021-04-12T23:23:35.703855</dc:date>
    <dc:format>image/svg+xml</dc:format>
    <dc:creator>
     <cc:Agent>
      <dc:title>Matplotlib v3.3.2, https://matplotlib.org/</dc:title>
     </cc:Agent>
    </dc:creator>
   </cc:Work>
  </rdf:RDF>
 </metadata>
 <defs>
  <style type="text/css">*{stroke-linecap:butt;stroke-linejoin:round;}</style>
 </defs>
 <g id="figure_1">
  <g id="patch_1">
   <path d="M 0 288 
L 432 288 
L 432 0 
L 0 0 
z
" style="fill:none;"/>
  </g>
  <g id="axes_1">
   <g id="patch_2">
    <path d="M 351.864 143.28 
C 351.864 131.878636 350.369437 120.526303 347.418547 109.513431 
C 344.467656 98.500559 340.08582 87.921869 334.385137 78.047998 
L 221.4 143.28 
L 351.864 143.28 
z
" style="fill:#ff0000;"/>
   </g>
   <g id="patch_3">
    <path d="M 334.385137 78.047998 
C 328.684455 68.174127 321.713959 59.090001 313.651977 51.028019 
C 305.589995 42.966037 296.505868 35.995542 286.631996 30.29486 
L 221.4 143.28 
L 334.385137 78.047998 
z
" style="fill:#ff8000;"/>
   </g>
   <g id="patch_4">
    <path d="M 286.631996 30.29486 
C 276.758125 24.594178 266.179435 20.212341 255.166563 17.261452 
C 244.153691 14.310562 232.801358 12.815999 221.399994 12.816 
L 221.4 143.28 
L 286.631996 30.29486 
z
" style="fill:#ffff00;"/>
   </g>
   <g id="patch_5">
    <path d="M 221.399994 12.816 
C 209.99863 12.816001 198.646297 14.310564 187.633425 17.261455 
C 176.620553 20.212346 166.041864 24.594183 156.167993 30.294866 
L 221.4 143.28 
L 221.399994 12.816 
z
" style="fill:#80ff00;"/>
   </g>
   <g id="patch_6">
    <path d="M 156.167993 30.294866 
C 146.294122 35.995549 137.209996 42.966045 129.148014 51.028027 
C 121.086033 59.09001 114.115538 68.174137 108.414857 78.048009 
L 221.4 143.28 
L 156.167993 30.294866 
z
" style="fill:#00ff00;"/>
   </g>
   <g id="patch_7">
    <path d="M 108.414857 78.048009 
C 102.714175 87.92188 98.332339 98.50057 95.38145 109.513443 
C 92.430561 120.526315 90.935999 131.878648 90.936 143.280012 
L 221.4 143.28 
L 108.414857 78.048009 
z
" style="fill:#00ff80;"/>
   </g>
   <g id="patch_8">
    <path d="M 90.936 143.280012 
C 90.936001 154.681377 92.430565 166.033709 95.381456 177.046581 
C 98.332348 188.059453 102.714186 198.638142 108.414869 208.512012 
L 221.4 143.28 
L 90.936 143.280012 
z
" style="fill:#00ffff;"/>
   </g>
   <g id="patch_9">
    <path d="M 108.414869 208.512012 
C 114.115552 218.385883 121.086049 227.470009 129.148032 235.53199 
C 137.210015 243.593971 146.294142 250.564466 156.168014 256.265146 
L 221.4 143.28 
L 108.414869 208.512012 
z
" style="fill:#0080ff;"/>
   </g>
   <g id="patch_10">
    <path d="M 156.168014 256.265146 
C 166.041886 261.965827 176.620576 266.347663 187.633449 269.298551 
C 198.646321 272.24944 209.998654 273.744002 221.400018 273.744 
L 221.4 143.28 
L 156.168014 256.265146 
z
" style="fill:#0000ff;"/>
   </g>
   <g id="patch_11">
    <path d="M 221.400018 273.744 
C 232.801383 273.743998 244.153715 272.249434 255.166587 269.298542 
C 266.179458 266.34765 276.758147 261.965812 286.632018 256.265128 
L 221.4 143.28 
L 221.400018 273.744 
z
" style="fill:#8000ff;"/>
   </g>
   <g id="patch_12">
    <path d="M 286.632018 256.265128 
C 296.505888 250.564444 305.590014 243.593947 313.651994 235.531964 
C 321.713975 227.469981 328.684469 218.385853 334.385149 208.511981 
L 221.4 143.28 
L 286.632018 256.265128 
z
" style="fill:#ff00ff;"/>
   </g>
   <g id="patch_13">
    <path d="M 334.385149 208.511981 
C 340.08583 198.638109 344.467665 188.059418 347.418553 177.046545 
C 350.369441 166.033673 351.864002 154.68134 351.864 143.279976 
L 221.4 143.28 
L 334.385149 208.511981 
z
" style="fill:#ff0080;"/>
   </g>
   <g id="patch_14">
    <path d="M 308.376 143.28 
C 308.376 131.858416 306.126197 120.547893 301.755346 109.995726 
C 297.384495 99.443558 290.977599 89.85496 282.901319 81.778681 
C 274.82504 73.702401 265.236442 67.295505 254.684274 62.924654 
C 244.132107 58.553803 232.821584 56.304 221.4 56.304 
C 209.978416 56.304 198.667893 58.553803 188.115726 62.924654 
C 177.563558 67.295505 167.97496 73.702401 159.898681 81.778681 
C 151.822401 89.85496 145.415505 99.443558 141.044654 109.995726 
C 136.673803 120.547893 134.424 131.858416 134.424 143.28 
C 134.424 154.701584 136.673803 166.012107 141.044654 176.564274 
C 145.415505 187.116442 151.822401 196.70504 159.898681 204.781319 
C 167.97496 212.857599 177.563558 219.264495 188.115726 223.635346 
C 198.667893 228.006197 209.978416 230.256 221.4 230.256 
C 232.821584 230.256 244.132107 228.006197 254.684274 223.635346 
C 265.236442 219.264495 274.82504 212.857599 282.901319 204.781319 
C 290.977599 196.70504 297.384495 187.116442 301.755346 176.564274 
C 306.126197 166.012107 308.376 154.701584 308.376 143.28 
M 221.4 143.28 
M 308.376 143.28 
z
" style="fill:#ffffff;"/>
   </g>
   <g id="matplotlib.axis_1"/>
   <g id="matplotlib.axis_2"/>
  </g>
 </g>
</svg>
