<?xml version="1.0" encoding="utf-8" standalone="no"?>
<!DOCTYPE svg PUBLIC "-//W3C//DTD SVG 1.1//EN"
  "http://www.w3.org/Graphics/SVG/1.1/DTD/svg11.dtd">
<!-- Created with matplotlib (https://matplotlib.org/) -->
<svg height="288pt" version="1.1" viewBox="0 0 432 288" width="432pt" xmlns="http://www.w3.org/2000/svg" xmlns:xlink="http://www.w3.org/1999/xlink">
 <metadata>
  <rdf:RDF xmlns:cc="http://creativecommons.org/ns#" xmlns:dc="http://purl.org/dc/elements/1.1/" xmlns:rdf="http://www.w3.org/1999/02/22-rdf-syntax-ns#">
   <cc:Work>
    <dc:type rdf:resource="http://purl.org/dc/dcmitype/StillImage"/>
    <dc:date>2021-04-12T22:59:00.250660</dc:date>
    <dc:format>image/svg+xml</dc:format>
    <dc:creator>
     <cc:Agent>
      <dc:title>Matplotlib v3.3.2, https://matplotlib.org/</dc:title>
     </cc:Agent>
    </dc:creator>
   </cc:Work>
  </rdf:RDF>
 </metadata>
 <defs>
  <style type="text/css">*{stroke-linecap:butt;stroke-linejoin:round;}</style>
 </defs>
 <g id="figure_1">
  <g id="patch_1">
   <path d="M 0 288 
L 432 288 
L 432 0 
L 0 0 
z
" style="fill:none;"/>
  </g>
  <g id="axes_1">
   <g id="patch_2">
    <path d="M 308.376 143.28 
C 308.376 141.761896 308.336254 140.244051 308.256802 138.728028 
C 308.177351 137.212004 308.058221 135.69832 307.899536 134.188532 
L 221.4 143.28 
L 308.376 143.28 
z
" style="fill:#ff0000;"/>
   </g>
   <g id="patch_3">
    <path d="M 307.899536 134.188532 
C 307.740851 132.678744 307.542665 131.173369 307.305181 129.673955 
C 307.067697 128.174541 306.790997 126.681602 306.475366 125.196672 
L 221.4 143.28 
L 307.899536 134.188532 
z
" style="fill:#f20d00;"/>
   </g>
   <g id="patch_4">
    <path d="M 306.475366 125.196672 
C 306.159734 123.711742 305.805279 122.23533 305.412364 120.768954 
C 305.01945 119.302577 304.588211 117.84674 304.119091 116.402937 
L 221.4 143.28 
L 306.475366 125.196672 
z
" style="fill:#e61a00;"/>
   </g>
   <g id="patch_5">
    <path d="M 304.119091 116.402937 
C 303.649971 114.959134 303.143131 113.52786 302.599091 112.110588 
C 302.055051 110.693315 301.473998 109.290529 300.856529 107.903672 
L 221.4 143.28 
L 304.119091 116.402937 
z
" style="fill:#d92600;"/>
   </g>
   <g id="patch_6">
    <path d="M 300.856529 107.903672 
C 300.23906 106.516815 299.585387 105.146361 298.896182 103.79372 
C 298.206977 102.44108 297.482477 101.106715 296.723424 99.791998 
L 221.4 143.28 
L 300.856529 107.903672 
z
" style="fill:#cc3300;"/>
   </g>
   <g id="patch_7">
    <path d="M 296.723424 99.791998 
C 295.964372 98.477281 295.171029 97.182663 294.34421 95.909473 
C 293.517391 94.636284 292.65738 93.38496 291.76506 92.156788 
L 221.4 143.28 
L 296.723424 99.791998 
z
" style="fill:#bf4000;"/>
   </g>
   <g id="patch_8">
    <path d="M 291.76506 92.156788 
C 290.872741 90.928615 289.948419 89.724016 288.993045 88.544227 
C 288.037671 87.364439 287.051572 86.209865 286.035762 85.081694 
L 221.4 143.28 
L 291.76506 92.156788 
z
" style="fill:#b24d00;"/>
   </g>
   <g id="patch_9">
    <path d="M 286.035762 85.081694 
C 285.019952 83.953523 283.974779 82.85214 282.901317 81.778678 
C 281.827855 80.705216 280.726472 79.660043 279.598301 78.644233 
L 221.4 143.28 
L 286.035762 85.081694 
z
" style="fill:#a65900;"/>
   </g>
   <g id="patch_10">
    <path d="M 279.598301 78.644233 
C 278.470129 77.628423 277.315556 76.642324 276.135767 75.68695 
C 274.955978 74.731576 273.751379 73.807255 272.523207 72.914935 
L 221.4 143.28 
L 279.598301 78.644233 
z
" style="fill:#996600;"/>
   </g>
   <g id="patch_11">
    <path d="M 272.523207 72.914935 
C 271.295034 72.022616 270.04371 71.162605 268.770521 70.335786 
C 267.497331 69.508967 266.202713 68.715624 264.887996 67.956572 
L 221.4 143.28 
L 272.523207 72.914935 
z
" style="fill:#8c7300;"/>
   </g>
   <g id="patch_12">
    <path d="M 264.887996 67.956572 
C 263.573279 67.19752 262.238914 66.473019 260.886273 65.783814 
C 259.533632 65.094609 258.163179 64.440937 256.776321 63.823468 
L 221.4 143.28 
L 264.887996 67.956572 
z
" style="fill:#808000;"/>
   </g>
   <g id="patch_13">
    <path d="M 256.776321 63.823468 
C 255.389464 63.206 253.986678 62.624947 252.569406 62.080907 
C 251.152133 61.536867 249.72086 61.030027 248.277057 60.560907 
L 221.4 143.28 
L 256.776321 63.823468 
z
" style="fill:#738c00;"/>
   </g>
   <g id="patch_14">
    <path d="M 248.277057 60.560907 
C 246.833254 60.091787 245.377416 59.660548 243.91104 59.267634 
C 242.444663 58.87472 240.968251 58.520265 239.483321 58.204633 
L 221.4 143.28 
L 248.277057 60.560907 
z
" style="fill:#669900;"/>
   </g>
   <g id="patch_15">
    <path d="M 239.483321 58.204633 
C 237.998391 57.889001 236.505452 57.612302 235.006038 57.374818 
C 233.506624 57.137334 232.001249 56.939148 230.491461 56.780463 
L 221.4 143.28 
L 239.483321 58.204633 
z
" style="fill:#59a600;"/>
   </g>
   <g id="patch_16">
    <path d="M 230.491461 56.780463 
C 228.981673 56.621778 227.467989 56.502649 225.951965 56.423197 
C 224.435941 56.343746 222.918097 56.304 221.399993 56.304 
L 221.4 143.28 
L 230.491461 56.780463 
z
" style="fill:#4cb300;"/>
   </g>
   <g id="patch_17">
    <path d="M 221.399993 56.304 
C 219.881889 56.304 218.364044 56.343746 216.848021 56.423198 
C 215.331997 56.50265 213.818313 56.621779 212.308525 56.780464 
L 221.4 143.28 
L 221.399993 56.304 
z
" style="fill:#40bf00;"/>
   </g>
   <g id="patch_18">
    <path d="M 212.308525 56.780464 
C 210.798737 56.93915 209.293362 57.137336 207.793948 57.37482 
C 206.294534 57.612304 204.801595 57.889004 203.316665 58.204636 
L 221.4 143.28 
L 212.308525 56.780464 
z
" style="fill:#33cc00;"/>
   </g>
   <g id="patch_19">
    <path d="M 203.316665 58.204636 
C 201.831735 58.520268 200.355323 58.874723 198.888947 59.267637 
C 197.422571 59.660552 195.966733 60.091791 194.52293 60.560911 
L 221.4 143.28 
L 203.316665 58.204636 
z
" style="fill:#26d900;"/>
   </g>
   <g id="patch_20">
    <path d="M 194.52293 60.560911 
C 193.079127 61.030031 191.647853 61.536872 190.230581 62.080912 
C 188.813309 62.624952 187.410523 63.206005 186.023665 63.823474 
L 221.4 143.28 
L 194.52293 60.560911 
z
" style="fill:#19e600;"/>
   </g>
   <g id="patch_21">
    <path d="M 186.023665 63.823474 
C 184.636808 64.440943 183.266355 65.094616 181.913714 65.783821 
C 180.561073 66.473026 179.226709 67.197527 177.911992 67.956579 
L 221.4 143.28 
L 186.023665 63.823474 
z
" style="fill:#0df200;"/>
   </g>
   <g id="patch_22">
    <path d="M 177.911992 67.956579 
C 176.597275 68.715632 175.302656 69.508975 174.029467 70.335794 
C 172.756278 71.162613 171.504954 72.022624 170.276782 72.914944 
L 221.4 143.28 
L 177.911992 67.956579 
z
" style="fill:#00ff00;"/>
   </g>
   <g id="patch_23">
    <path d="M 170.276782 72.914944 
C 169.04861 73.807263 167.84401 74.731585 166.664222 75.686959 
C 165.484433 76.642333 164.32986 77.628432 163.201689 78.644243 
L 221.4 143.28 
L 170.276782 72.914944 
z
" style="fill:#00f20d;"/>
   </g>
   <g id="patch_24">
    <path d="M 163.201689 78.644243 
C 162.073517 79.660053 160.972135 80.705226 159.898673 81.778688 
C 158.825211 82.85215 157.780038 83.953533 156.764228 85.081705 
L 221.4 143.28 
L 163.201689 78.644243 
z
" style="fill:#00e61a;"/>
   </g>
   <g id="patch_25">
    <path d="M 156.764228 85.081705 
C 155.748418 86.209876 154.76232 87.36445 153.806946 88.544238 
C 152.851572 89.724027 151.92725 90.928627 151.034931 92.156799 
L 221.4 143.28 
L 156.764228 85.081705 
z
" style="fill:#00d926;"/>
   </g>
   <g id="patch_26">
    <path d="M 151.034931 92.156799 
C 150.142612 93.384971 149.282601 94.636296 148.455782 95.909485 
C 147.628964 97.182675 146.835621 98.477293 146.076569 99.79201 
L 221.4 143.28 
L 151.034931 92.156799 
z
" style="fill:#00cc33;"/>
   </g>
   <g id="patch_27">
    <path d="M 146.076569 99.79201 
C 145.317517 101.106727 144.593016 102.441092 143.903811 103.793733 
C 143.214606 105.146374 142.560934 106.516828 141.943465 107.903685 
L 221.4 143.28 
L 146.076569 99.79201 
z
" style="fill:#00bf40;"/>
   </g>
   <g id="patch_28">
    <path d="M 141.943465 107.903685 
C 141.325997 109.290542 140.744944 110.693328 140.200904 112.110601 
C 139.656865 113.527874 139.150024 114.959147 138.680904 116.40295 
L 221.4 143.28 
L 141.943465 107.903685 
z
" style="fill:#00b24d;"/>
   </g>
   <g id="patch_29">
    <path d="M 138.680904 116.40295 
C 138.211785 117.846753 137.780546 119.302591 137.387632 120.768967 
C 136.994718 122.235344 136.640263 123.711756 136.324632 125.196686 
L 221.4 143.28 
L 138.680904 116.40295 
z
" style="fill:#00a659;"/>
   </g>
   <g id="patch_30">
    <path d="M 136.324632 125.196686 
C 136.009 126.681616 135.7323 128.174555 135.494817 129.673969 
C 135.257333 131.173383 135.059147 132.678758 134.900462 134.188546 
L 221.4 143.28 
L 136.324632 125.196686 
z
" style="fill:#009966;"/>
   </g>
   <g id="patch_31">
    <path d="M 134.900462 134.188546 
C 134.741777 135.698334 134.622648 137.212018 134.543197 138.728042 
C 134.463746 140.244066 134.424 141.76191 134.424 143.280014 
L 221.4 143.28 
L 134.900462 134.188546 
z
" style="fill:#008c73;"/>
   </g>
   <g id="patch_32">
    <path d="M 134.424 143.280014 
C 134.424 144.798119 134.463747 146.315963 134.543198 147.831987 
C 134.62265 149.34801 134.74178 150.861694 134.900465 152.371482 
L 221.4 143.28 
L 134.424 143.280014 
z
" style="fill:#008080;"/>
   </g>
   <g id="patch_33">
    <path d="M 134.900465 152.371482 
C 135.059151 153.88127 135.257337 155.386645 135.494821 156.886059 
C 135.732305 158.385473 136.009006 159.878412 136.324637 161.363342 
L 221.4 143.28 
L 134.900465 152.371482 
z
" style="fill:#00738c;"/>
   </g>
   <g id="patch_34">
    <path d="M 136.324637 161.363342 
C 136.640269 162.848272 136.994725 164.324684 137.387639 165.79106 
C 137.780554 167.257436 138.211793 168.713274 138.680913 170.157077 
L 221.4 143.28 
L 136.324637 161.363342 
z
" style="fill:#006699;"/>
   </g>
   <g id="patch_35">
    <path d="M 138.680913 170.157077 
C 139.150034 171.60088 139.656874 173.032153 140.200915 174.449426 
C 140.744955 175.866698 141.326008 177.269484 141.943477 178.656341 
L 221.4 143.28 
L 138.680913 170.157077 
z
" style="fill:#0059a6;"/>
   </g>
   <g id="patch_36">
    <path d="M 141.943477 178.656341 
C 142.560946 180.043198 143.214619 181.413652 143.903824 182.766292 
C 144.593029 184.118933 145.31753 185.453298 146.076583 186.768014 
L 221.4 143.28 
L 141.943477 178.656341 
z
" style="fill:#004cb3;"/>
   </g>
   <g id="patch_37">
    <path d="M 146.076583 186.768014 
C 146.835635 188.082731 147.628979 189.37735 148.455798 190.650539 
C 149.282617 191.923728 150.142628 193.175052 151.034948 194.403224 
L 221.4 143.28 
L 146.076583 186.768014 
z
" style="fill:#0040bf;"/>
   </g>
   <g id="patch_38">
    <path d="M 151.034948 194.403224 
C 151.927268 195.631396 152.85159 196.835995 153.806964 198.015784 
C 154.762338 199.195572 155.748437 200.350145 156.764247 201.478317 
L 221.4 143.28 
L 151.034948 194.403224 
z
" style="fill:#0033cc;"/>
   </g>
   <g id="patch_39">
    <path d="M 156.764247 201.478317 
C 157.780058 202.606488 158.825231 203.70787 159.898693 204.781332 
C 160.972155 205.854794 162.073538 206.899967 163.20171 207.915776 
L 221.4 143.28 
L 156.764247 201.478317 
z
" style="fill:#0026d9;"/>
   </g>
   <g id="patch_40">
    <path d="M 163.20171 207.915776 
C 164.329881 208.931586 165.484455 209.917685 166.664244 210.873059 
C 167.844033 211.828432 169.048632 212.752754 170.276805 213.645073 
L 221.4 143.28 
L 163.20171 207.915776 
z
" style="fill:#0019e6;"/>
   </g>
   <g id="patch_41">
    <path d="M 170.276805 213.645073 
C 171.504977 214.537392 172.756301 215.397403 174.029491 216.224222 
C 175.302681 217.05104 176.597299 217.844383 177.912016 218.603435 
L 221.4 143.28 
L 170.276805 213.645073 
z
" style="fill:#000df2;"/>
   </g>
   <g id="patch_42">
    <path d="M 177.912016 218.603435 
C 179.226734 219.362487 180.561098 220.086988 181.913739 220.776192 
C 183.26638 221.465397 184.636834 222.119069 186.023692 222.736538 
L 221.4 143.28 
L 177.912016 218.603435 
z
" style="fill:#0000ff;"/>
   </g>
   <g id="patch_43">
    <path d="M 186.023692 222.736538 
C 187.410549 223.354006 188.813335 223.935059 190.230608 224.479098 
C 191.64788 225.023138 193.079154 225.529978 194.522957 225.999098 
L 221.4 143.28 
L 186.023692 222.736538 
z
" style="fill:#0d00f2;"/>
   </g>
   <g id="patch_44">
    <path d="M 194.522957 225.999098 
C 195.96676 226.468217 197.422598 226.899456 198.888974 227.29237 
C 200.355351 227.685284 201.831763 228.039739 203.316693 228.35537 
L 221.4 143.28 
L 194.522957 225.999098 
z
" style="fill:#1a00e6;"/>
   </g>
   <g id="patch_45">
    <path d="M 203.316693 228.35537 
C 204.801623 228.671001 206.294562 228.947701 207.793976 229.185184 
C 209.29339 229.422668 210.798765 229.620854 212.308553 229.779539 
L 221.4 143.28 
L 203.316693 228.35537 
z
" style="fill:#2600d9;"/>
   </g>
   <g id="patch_46">
    <path d="M 212.308553 229.779539 
C 213.818341 229.938223 215.332025 230.057352 216.848049 230.136804 
C 218.364073 230.216255 219.881917 230.256 221.400021 230.256 
L 221.4 143.28 
L 212.308553 229.779539 
z
" style="fill:#3300cc;"/>
   </g>
   <g id="patch_47">
    <path d="M 221.400021 230.256 
C 222.918126 230.256 224.43597 230.216253 225.951994 230.136801 
C 227.468018 230.057349 228.981701 229.93822 230.491489 229.779534 
L 221.4 143.28 
L 221.400021 230.256 
z
" style="fill:#4000bf;"/>
   </g>
   <g id="patch_48">
    <path d="M 230.491489 229.779534 
C 232.001277 229.620849 233.506652 229.422662 235.006066 229.185178 
C 236.50548 228.947693 237.998419 228.670993 239.483349 228.355361 
L 221.4 143.28 
L 230.491489 229.779534 
z
" style="fill:#4d00b2;"/>
   </g>
   <g id="patch_49">
    <path d="M 239.483349 228.355361 
C 240.968279 228.039729 242.444691 227.685274 243.911067 227.292359 
C 245.377443 226.899444 246.833281 226.468205 248.277084 225.999085 
L 221.4 143.28 
L 239.483349 228.355361 
z
" style="fill:#5900a6;"/>
   </g>
   <g id="patch_50">
    <path d="M 248.277084 225.999085 
C 249.720887 225.529964 251.15216 225.023123 252.569432 224.479083 
C 253.986705 223.935043 255.38949 223.353989 256.776348 222.73652 
L 221.4 143.28 
L 248.277084 225.999085 
z
" style="fill:#660099;"/>
   </g>
   <g id="patch_51">
    <path d="M 256.776348 222.73652 
C 258.163205 222.119051 259.533658 221.465378 260.886299 220.776173 
C 262.238939 220.086967 263.573304 219.362466 264.888021 218.603414 
L 221.4 143.28 
L 256.776348 222.73652 
z
" style="fill:#73008c;"/>
   </g>
   <g id="patch_52">
    <path d="M 264.888021 218.603414 
C 266.202737 217.844361 267.497356 217.051017 268.770545 216.224198 
C 270.043734 215.397379 271.295058 214.537368 272.52323 213.645048 
L 221.4 143.28 
L 264.888021 218.603414 
z
" style="fill:#800080;"/>
   </g>
   <g id="patch_53">
    <path d="M 272.52323 213.645048 
C 273.751402 212.752728 274.956001 211.828406 276.135789 210.873032 
C 277.315578 209.917657 278.470151 208.931558 279.598322 207.915748 
L 221.4 143.28 
L 272.52323 213.645048 
z
" style="fill:#8c0073;"/>
   </g>
   <g id="patch_54">
    <path d="M 279.598322 207.915748 
C 280.726493 206.899937 281.827875 205.854764 282.901337 204.781302 
C 283.974799 203.70784 285.019971 202.606457 286.035781 201.478285 
L 221.4 143.28 
L 279.598322 207.915748 
z
" style="fill:#990066;"/>
   </g>
   <g id="patch_55">
    <path d="M 286.035781 201.478285 
C 287.051591 200.350113 288.037689 199.19554 288.993063 198.015751 
C 289.948437 196.835962 290.872758 195.631362 291.765077 194.403189 
L 221.4 143.28 
L 286.035781 201.478285 
z
" style="fill:#a60059;"/>
   </g>
   <g id="patch_56">
    <path d="M 291.765077 194.403189 
C 292.657396 193.175017 293.517407 191.923693 294.344225 190.650503 
C 295.171044 189.377313 295.964387 188.082695 296.723439 186.767977 
L 221.4 143.28 
L 291.765077 194.403189 
z
" style="fill:#b3004c;"/>
   </g>
   <g id="patch_57">
    <path d="M 296.723439 186.767977 
C 297.48249 185.45326 298.206991 184.118895 298.896195 182.766254 
C 299.5854 181.413613 300.239072 180.043159 300.856541 178.656302 
L 221.4 143.28 
L 296.723439 186.767977 
z
" style="fill:#bf0040;"/>
   </g>
   <g id="patch_58">
    <path d="M 300.856541 178.656302 
C 301.474009 177.269444 302.055061 175.866658 302.599101 174.449386 
C 303.14314 173.032113 303.64998 171.60084 304.1191 170.157036 
L 221.4 143.28 
L 300.856541 178.656302 
z
" style="fill:#cc0033;"/>
   </g>
   <g id="patch_59">
    <path d="M 304.1191 170.157036 
C 304.58822 168.713233 305.019458 167.257395 305.412372 165.791019 
C 305.805286 164.324643 306.15974 162.84823 306.475371 161.3633 
L 221.4 143.28 
L 304.1191 170.157036 
z
" style="fill:#d90026;"/>
   </g>
   <g id="patch_60">
    <path d="M 306.475371 161.3633 
C 306.791003 159.87837 307.067702 158.385431 307.305185 156.886017 
C 307.542669 155.386603 307.740855 153.881228 307.899539 152.37144 
L 221.4 143.28 
L 306.475371 161.3633 
z
" style="fill:#e60019;"/>
   </g>
   <g id="patch_61">
    <path d="M 307.899539 152.37144 
C 308.058224 150.861652 308.177353 149.347968 308.256804 147.831944 
C 308.336255 146.31592 308.376 144.798076 308.376 143.279971 
L 221.4 143.28 
L 307.899539 152.37144 
z
" style="fill:#f2000d;"/>
   </g>
   <g id="matplotlib.axis_1"/>
   <g id="matplotlib.axis_2"/>
  </g>
 </g>
</svg>
